<svg width="24" height="24" viewBox="0 0 24 24" fill="none" xmlns="http://www.w3.org/2000/svg">
<path fill-rule="evenodd" clip-rule="evenodd" d="M9.91881 3L13.7428 3.0006C14.6519 3.00674 15.0128 3.02059 15.6202 3.04734L15.7088 3.05125C16.456 3.06663 17.1952 3.20849 17.8949 3.47078C19.1029 3.93782 20.0579 4.89136 20.5256 6.09746C20.7917 6.80569 20.9338 7.55434 20.9458 8.31068L20.9659 8.68483C20.9916 9.21159 20.9983 9.63613 21 10.6729L20.9965 13.7535C20.9936 14.1858 20.9889 14.4939 20.9819 14.7636L20.9458 15.7164C20.9304 16.4625 20.7883 17.2006 20.5256 17.8993C20.0579 19.1054 19.1029 20.0589 17.8949 20.5259C17.1952 20.7882 16.456 20.9301 15.7088 20.9455L15.0755 20.9769C14.5907 20.9955 14.0908 20.9992 12.973 21L10.2576 20.9961C9.30517 20.9897 8.95447 20.9748 8.29165 20.9455C7.54265 20.9204 6.80338 20.7682 6.10549 20.4955C4.89755 20.0285 3.94255 19.075 3.4748 17.8689C3.2121 17.1702 3.07002 16.4321 3.05462 15.686L3.02317 15.0537C3.00451 14.5697 3.00076 14.0706 3 12.9545L3.0039 10.2432C3.00682 9.81094 3.0115 9.50282 3.01849 9.23314L3.05462 8.28027C3.07002 7.53418 3.2121 6.7961 3.4748 6.09746C3.94255 4.89136 4.89755 3.93782 6.10549 3.47078C6.8052 3.20849 7.54441 3.06663 8.29165 3.05125L8.66638 3.03116C9.0474 3.01262 9.37502 3.004 9.91881 3ZM14.0197 4.58087L10.2339 4.58147C9.80717 4.5844 9.50608 4.58907 9.24311 4.59605L8.30992 4.63212C7.74007 4.63942 7.1757 4.7443 6.64138 4.94221C5.85217 5.24277 5.22794 5.86384 4.92412 6.65076C4.72384 7.19002 4.61876 7.75988 4.61355 8.335L4.5821 8.96488C4.56564 9.38344 4.56078 9.80207 4.55934 10.6533L4.56283 13.7103C4.56575 14.1364 4.57043 14.437 4.57742 14.6996L4.61355 15.6313C4.62086 16.2003 4.72591 16.7638 4.92412 17.2973C5.22794 18.0842 5.85217 18.7053 6.64138 19.0059C7.1757 19.2038 7.74007 19.3087 8.30992 19.316L8.94077 19.3474C9.35997 19.3638 9.77924 19.3686 10.6318 19.3701L13.6934 19.3666C14.1202 19.3637 14.4213 19.359 14.6842 19.352L15.6174 19.316C16.1873 19.3087 16.7516 19.2038 17.286 19.0059C18.0724 18.7032 18.694 18.0826 18.9971 17.2973C19.1724 16.8255 19.2747 16.3302 19.3011 15.8284L19.3077 15.6131H19.3199L19.3425 15.0458C19.355 14.6649 19.3597 14.2966 19.3614 13.6174L19.3584 10.2378C19.352 9.30247 19.3371 8.97162 19.3079 8.32102L19.3079 8.32088L19.3079 8.32079L19.3077 8.31676C19.3004 7.74778 19.1953 7.18427 18.9971 6.65076C18.694 5.8655 18.0724 5.24486 17.286 4.94221C16.7516 4.7443 16.1873 4.63942 15.6174 4.63212L15.2415 4.61203C14.8632 4.59349 14.55 4.58487 14.0197 4.58087ZM15.2624 8.71383C14.3956 7.84837 13.2199 7.36215 11.9941 7.36215C9.44146 7.36215 7.37213 9.42833 7.37213 11.9771C7.37213 14.5258 9.44146 16.592 11.9941 16.592C14.5468 16.592 16.6161 14.5258 16.6161 11.9771C16.6161 10.7531 16.1291 9.5793 15.2624 8.71383ZM11.9941 8.97951C10.3361 8.97951 8.99195 10.3216 8.99195 11.9771C8.99195 13.6326 10.3361 14.9746 11.9941 14.9746C13.6522 14.9746 14.9963 13.6326 14.9963 11.9771C14.9963 10.3216 13.6522 8.97951 11.9941 8.97951ZM17.8766 7.19191C17.8766 6.59753 17.3941 6.1157 16.7988 6.1157C16.2035 6.1157 15.7209 6.59753 15.7209 7.19191C15.7209 7.78628 16.2035 8.26811 16.7988 8.26811C17.3941 8.26811 17.8766 7.78628 17.8766 7.19191Z" fill="#B2B3B4"/>
</svg>
