<svg width="190" height="32" viewBox="0 0 190 32" fill="none" xmlns="http://www.w3.org/2000/svg">
<path fill-rule="evenodd" clip-rule="evenodd" d="M9.09724 0C11.3996 2.20965 11.4286 4.96479 9.63754 6.74455C13.6455 4.7637 18.4791 4.7352 22.571 6.88864C23.225 7.20374 23.85 7.60593 24.4475 8.06512C24.3338 7.86402 24.1919 7.63443 24.0491 7.43334C19.6719 1.60716 12.8213 0.430689 9.09724 0ZM28.0006 0.315099C27.12 3.38613 24.7596 4.7067 22.3428 3.93162C25.9821 6.60125 28.2288 10.8773 28.2563 15.5547C28.2837 16.3012 28.2288 17.0478 28.0861 17.7936C28.2288 17.564 28.3417 17.3629 28.4554 17.1333C31.5247 10.5036 29.3651 3.84532 28.0006 0.315099ZM30.5602 13.0299C31.2142 15.4977 33.573 16.8467 36.6148 15.9284C34.3697 18.9709 29.9336 24.3664 22.7709 25.2847C22.5153 25.3132 22.2597 25.3132 22.0315 25.3132C22.7145 25.0266 23.3685 24.6823 23.9935 24.2516C27.8877 21.7545 30.2465 17.507 30.5602 13.0299ZM27.5183 31.943C25.2152 29.7333 25.1878 26.9774 26.978 25.1984C22.9693 27.2078 18.1372 27.2363 14.0438 25.0544C13.3898 24.7385 12.7641 24.3379 12.1673 23.8779C12.2802 24.079 12.4229 24.3086 12.5649 24.5097C16.9429 30.3358 23.7935 31.5123 27.5183 31.943ZM14.7261 28.1539C12.281 27.4944 9.94964 28.872 9.21095 32C7.70454 28.5268 5.31594 21.9548 8.10133 15.2103L8.11978 15.1733L8.11978 15.1733C8.22804 14.9561 8.3356 14.7403 8.44245 14.5508C8.32875 15.2966 8.3013 16.0431 8.35776 16.7889C8.58596 21.4671 11.002 25.6576 14.7261 28.1539ZM0 16.0431C3.04182 15.1256 5.40141 16.4738 6.05542 18.9424C6.36752 14.436 8.72789 10.217 12.6221 7.71993C13.2471 7.29004 13.9011 6.94564 14.5833 6.65825C14.3559 6.65825 14.1003 6.65825 13.8446 6.68676C6.68041 7.60514 2.21765 13.0014 0 16.0431Z" fill="#3A99FF"/>
<path fill-rule="evenodd" clip-rule="evenodd" d="M46.4965 22.4546C47.4318 22.723 48.4002 22.8571 49.4018 22.8571C50.5604 22.8571 51.5439 22.6842 52.3524 22.3383C53.161 21.9924 53.7674 21.5243 54.1716 20.934C54.5759 20.3436 54.778 19.6906 54.778 18.975C54.778 18.1401 54.5578 17.4782 54.1173 16.9892C53.6769 16.5002 53.1489 16.1424 52.5334 15.9158C51.918 15.6892 51.1275 15.4626 50.1621 15.236C49.2329 15.0332 48.542 14.8275 48.0895 14.6188C47.6369 14.4101 47.4107 14.091 47.4107 13.6617C47.4107 13.2323 47.6068 12.8864 47.999 12.624C48.3912 12.3617 48.9976 12.2305 49.8182 12.2305C50.9888 12.2305 52.1593 12.5584 53.3299 13.2144L54.235 11.0139C53.6557 10.6561 52.9799 10.3818 52.2076 10.191C51.4353 10.0002 50.6448 9.90475 49.8363 9.90475C48.6778 9.90475 47.6973 10.0777 46.8948 10.4236C46.0922 10.7694 45.4919 11.2376 45.0936 11.8279C44.6954 12.4183 44.4963 13.0772 44.4963 13.8048C44.4963 14.6397 44.7165 15.3075 45.157 15.8085C45.5975 16.3094 46.1254 16.6731 46.7409 16.8998C47.3564 17.1264 48.1468 17.353 49.1122 17.5796C49.7397 17.7227 50.2375 17.8539 50.6056 17.9732C50.9737 18.0924 51.2754 18.2505 51.5107 18.4472C51.746 18.644 51.8637 18.8915 51.8637 19.1897C51.8637 19.5952 51.6646 19.9202 51.2663 20.1647C50.8681 20.4092 50.2526 20.5314 49.4199 20.5314C48.6717 20.5314 47.9235 20.4122 47.1753 20.1736C46.4271 19.9351 45.7815 19.619 45.2385 19.2255L44.2429 21.408C44.81 21.8374 45.5613 22.1863 46.4965 22.4546ZM60.601 22.0163C61.657 22.5769 62.8426 22.8571 64.158 22.8571C65.4734 22.8571 66.656 22.5769 67.7059 22.0163C68.7558 21.4557 69.5825 20.6835 70.1859 19.6995C70.7893 18.7156 71.0909 17.6094 71.0909 16.3809C71.0909 15.1525 70.7893 14.0463 70.1859 13.0623C69.5825 12.0784 68.7558 11.3061 67.7059 10.7456C66.656 10.185 65.4734 9.90475 64.158 9.90475C62.8426 9.90475 61.657 10.185 60.601 10.7456C59.5451 11.3061 58.7184 12.0784 58.1211 13.0623C57.5237 14.0463 57.2251 15.1525 57.2251 16.3809C57.2251 17.6094 57.5237 18.7156 58.1211 19.6995C58.7184 20.6835 59.5451 21.4557 60.601 22.0163ZM64.158 20.3883C64.9062 20.3883 65.582 20.2184 66.1854 19.8784C66.7888 19.5385 67.2624 19.0645 67.6064 18.4562C67.9503 17.8479 68.1223 17.1562 68.1223 16.3809C68.1223 15.6057 67.9503 14.914 67.6064 14.3057C67.2624 13.6974 66.7888 13.2234 66.1854 12.8834C65.582 12.5435 64.9062 12.3736 64.158 12.3736C63.4098 12.3736 62.734 12.5435 62.1306 12.8834C61.5272 13.2234 61.0536 13.6974 60.7096 14.3057C60.3657 14.914 60.1937 15.6057 60.1937 16.3809C60.1937 17.1562 60.3657 17.8479 60.7096 18.4562C61.0536 19.0645 61.5272 19.5385 62.1306 19.8784C62.734 20.2184 63.4098 20.3883 64.158 20.3883ZM77.466 10.1194H74.5336V22.6425H83.8197V20.281H77.466V10.1194ZM95.1547 19.959H89.2716L88.1493 22.6425H85.1444L90.7922 10.1194H93.6884L99.3543 22.6425H96.277L95.1547 19.959ZM92.2222 12.9639L94.2315 17.7585H90.2129L92.2222 12.9639ZM109.983 22.6425L107.54 19.1539H104.842V22.6425H101.91V10.1194H107.395C108.517 10.1194 109.491 10.3043 110.318 10.674C111.145 11.0438 111.781 11.5685 112.228 12.2483C112.674 12.9282 112.898 13.7332 112.898 14.6635C112.898 15.5938 112.671 16.3959 112.219 17.0697C111.766 17.7436 111.124 18.2594 110.291 18.6172L113.133 22.6425H109.983ZM109.241 13.0445C109.7 13.4201 109.929 13.9598 109.929 14.6635C109.929 15.3553 109.7 15.8919 109.241 16.2736C108.782 16.6553 108.113 16.8461 107.232 16.8461H104.842V12.4809H107.232C108.113 12.4809 108.782 12.6688 109.241 13.0445ZM125.011 16.1842H127.69V21.2649C127.002 21.7778 126.206 22.1714 125.301 22.4457C124.395 22.72 123.484 22.8571 122.567 22.8571C121.252 22.8571 120.069 22.5798 119.019 22.0252C117.969 21.4707 117.146 20.7014 116.548 19.7174C115.951 18.7335 115.652 17.6213 115.652 16.3809C115.652 15.1406 115.951 14.0284 116.548 13.0445C117.146 12.0605 117.975 11.2912 119.037 10.7366C120.099 10.182 121.294 9.90475 122.621 9.90475C123.732 9.90475 124.739 10.0896 125.644 10.4593C126.55 10.8291 127.31 11.3658 127.925 12.0694L126.043 13.7869C125.138 12.8447 124.046 12.3736 122.766 12.3736C121.958 12.3736 121.24 12.5406 120.612 12.8745C119.985 13.2084 119.496 13.6795 119.146 14.2878C118.796 14.8961 118.621 15.5938 118.621 16.3809C118.621 17.1562 118.796 17.8479 119.146 18.4562C119.496 19.0645 119.982 19.5385 120.603 19.8784C121.225 20.2184 121.934 20.3883 122.73 20.3883C123.575 20.3883 124.335 20.2094 125.011 19.8516V16.1842ZM137.269 19.1539L139.713 22.6425H142.862L140.021 18.6172C140.853 18.2594 141.496 17.7436 141.948 17.0697C142.401 16.3959 142.627 15.5938 142.627 14.6635C142.627 13.7332 142.404 12.9282 141.957 12.2483C141.511 11.5685 140.874 11.0438 140.048 10.674C139.221 10.3043 138.247 10.1194 137.124 10.1194H131.639V22.6425H134.572V19.1539H137.269ZM139.658 14.6635C139.658 13.9598 139.429 13.4201 138.971 13.0445C138.512 12.6688 137.842 12.4809 136.961 12.4809H134.572V16.8461H136.961C137.842 16.8461 138.512 16.6553 138.971 16.2736C139.429 15.8919 139.658 15.3553 139.658 14.6635ZM148.758 22.0163C149.814 22.5769 150.999 22.8571 152.315 22.8571C153.63 22.8571 154.813 22.5769 155.863 22.0163C156.913 21.4557 157.739 20.6835 158.343 19.6995C158.946 18.7156 159.248 17.6094 159.248 16.3809C159.248 15.1525 158.946 14.0463 158.343 13.0623C157.739 12.0784 156.913 11.3061 155.863 10.7456C154.813 10.185 153.63 9.90475 152.315 9.90475C150.999 9.90475 149.814 10.185 148.758 10.7456C147.702 11.3061 146.875 12.0784 146.278 13.0623C145.681 14.0463 145.382 15.1525 145.382 16.3809C145.382 17.6094 145.681 18.7156 146.278 19.6995C146.875 20.6835 147.702 21.4557 148.758 22.0163ZM152.315 20.3883C153.063 20.3883 153.739 20.2184 154.342 19.8784C154.946 19.5385 155.419 19.0645 155.763 18.4562C156.107 17.8479 156.279 17.1562 156.279 16.3809C156.279 15.6057 156.107 14.914 155.763 14.3057C155.419 13.6974 154.946 13.2234 154.342 12.8834C153.739 12.5435 153.063 12.3736 152.315 12.3736C151.567 12.3736 150.891 12.5435 150.287 12.8834C149.684 13.2234 149.21 13.6974 148.866 14.3057C148.523 14.914 148.351 15.6057 148.351 16.3809C148.351 17.1562 148.523 17.8479 148.866 18.4562C149.21 19.0645 149.684 19.5385 150.287 19.8784C150.891 20.2184 151.567 20.3883 152.315 20.3883ZM164.093 21.3723C165.101 22.3622 166.51 22.8571 168.32 22.8571C170.13 22.8571 171.539 22.3622 172.547 21.3723C173.554 20.3823 174.058 18.969 174.058 17.1323V10.1194H171.162V17.025C171.162 18.1819 170.921 19.0316 170.438 19.5743C169.955 20.117 169.255 20.3883 168.338 20.3883C166.456 20.3883 165.514 19.2672 165.514 17.025V10.1194H162.582V17.1323C162.582 18.969 163.086 20.3823 164.093 21.3723ZM183.674 10.1194C184.796 10.1194 185.77 10.3043 186.597 10.674C187.424 11.0438 188.06 11.5685 188.507 12.2483C188.953 12.9282 189.176 13.7332 189.176 14.6635C189.176 15.5819 188.953 16.3839 188.507 17.0697C188.06 17.7555 187.424 18.2803 186.597 18.644C185.77 19.0078 184.796 19.1897 183.674 19.1897H181.121V22.6425H178.189V10.1194H183.674ZM185.52 16.2647C185.061 16.6404 184.392 16.8282 183.511 16.8282H181.121V12.4809H183.511C184.392 12.4809 185.061 12.6688 185.52 13.0445C185.978 13.4201 186.208 13.9598 186.208 14.6635C186.208 15.3553 185.978 15.889 185.52 16.2647Z" fill="#3A99FF"/>
</svg>
