<svg width="24" height="24" viewBox="0 0 24 24" fill="none" xmlns="http://www.w3.org/2000/svg">
<path fill-rule="evenodd" clip-rule="evenodd" d="M21 9.23712C21 4.19407 19.8059 3 14.7629 3H9.23712C4.19407 3 3 4.19407 3 9.23712V14.7629C3 19.8059 4.19407 21 9.23712 21H14.7629C19.8059 21 21 19.8059 21 14.7629V9.23712ZM6.46789 8.7036H7.78899C8.11927 8.7036 8.24629 8.84333 8.37332 9.21171L8.39371 9.26999C9.0436 11.113 10.1055 12.7177 10.5455 12.7177C10.7012 12.7177 10.7779 12.65 10.7861 12.2909L10.7869 12.2223V10.2915C10.7555 9.74264 10.5645 9.50352 10.4228 9.3262C10.3349 9.21623 10.2661 9.13003 10.2661 9.00847C10.2661 8.85603 10.3931 8.7036 10.5963 8.7036H12.6542C12.9337 8.7036 13.0353 8.85603 13.0353 9.18631V11.7904C13.0353 12.0699 13.1496 12.1715 13.2385 12.1715C13.4037 12.1715 13.5434 12.0699 13.8483 11.765C14.7669 10.7346 15.4308 9.1583 15.4605 9.08718L15.4809 9.0455C15.5723 8.87046 15.7257 8.7163 16.0332 8.7163H17.3416C17.7354 8.7163 17.8243 8.91955 17.7354 9.19901C17.5966 9.83949 16.4442 11.5384 16.0873 12.0647C16.0194 12.1647 15.9803 12.2223 15.9824 12.2223C15.8426 12.451 15.7918 12.5526 15.9824 12.8066C16.0512 12.9006 16.1973 13.0439 16.3642 13.2077C16.5359 13.3762 16.7297 13.5663 16.8843 13.7466L16.9738 13.8487C17.489 14.439 17.8813 14.9352 17.9894 15.2837C18.091 15.6521 17.9132 15.8426 17.5321 15.8426H16.2237C15.877 15.8426 15.6982 15.6435 15.3173 15.2191C15.1725 15.0577 14.9983 14.8637 14.7746 14.6357L14.6867 14.5469C13.9519 13.8362 13.6054 13.7081 13.4091 13.6967L13.3783 13.6958C13.1263 13.6958 13.0443 13.7525 13.036 14.0798L13.0353 14.1404L13.0352 15.3384C13.0315 15.646 12.919 15.8299 12.0953 15.8299C10.7107 15.8299 9.17361 14.9915 8.09386 13.4291C6.46789 11.1426 6.02329 9.41496 6.02329 9.07198L6.02346 9.05521C6.0273 8.87113 6.09801 8.7036 6.46789 8.7036Z"/>
</svg>
