<svg width="24" height="24" viewBox="0 0 24 24" fill="none" xmlns="http://www.w3.org/2000/svg">
<path fill-rule="evenodd" clip-rule="evenodd" d="M11.589 5.00148L12.0635 5C12.7241 5.00138 18.3466 5.02466 19.8139 5.41789C20.6745 5.64788 21.3521 6.32554 21.5821 7.1861C21.9792 8.6678 21.999 11.6789 22 11.9763L21.9985 12.2148C21.9901 12.9652 21.9355 15.4952 21.5821 16.8141C21.3521 17.6746 20.6745 18.3522 19.8139 18.5823C18.3767 18.9674 12.953 18.9976 12.1103 19L11.5925 18.9987C10.1795 18.9902 5.50482 18.9356 4.18612 18.5823C3.32566 18.3522 2.64793 17.6746 2.41793 16.8141C2.01669 15.3166 2.00064 12.2577 2 12.0154L2.00258 11.7004C2.01412 10.8599 2.07688 8.4588 2.41793 7.1861C2.64793 6.32554 3.32566 5.64788 4.18612 5.41789C5.50372 5.06478 10.1718 5.00998 11.589 5.00148ZM9.95455 9.04543V14.9547L15.1818 12.0002L9.95455 9.04543Z"/>
</svg>
